<mxfile host="app.diagrams.net" modified="2022-03-31T08:23:33.253Z" agent="5.0 (Macintosh; Intel Mac OS X 10_15_7) AppleWebKit/537.36 (KHTML, like Gecko) Chrome/99.0.4844.83 Safari/537.36" etag="gpaKKz0YdZ91BhKIDQty" version="17.2.4" type="github">
  <diagram id="3BkN5hxcxzZdxQTNozDG" name="Page-1">
    <mxGraphModel dx="929" dy="474" grid="1" gridSize="10" guides="1" tooltips="1" connect="1" arrows="1" fold="1" page="1" pageScale="1" pageWidth="827" pageHeight="1169" math="0" shadow="0">
      <root>
        <mxCell id="0" />
        <mxCell id="1" parent="0" />
        <mxCell id="FLKgtXNhYqOgUsWKws1f-1" value="" style="rounded=0;whiteSpace=wrap;html=1;fontSize=16;fillColor=#f9f7ed;strokeColor=#36393d;" vertex="1" parent="1">
          <mxGeometry x="140" y="370" width="565" height="240" as="geometry" />
        </mxCell>
        <mxCell id="FLKgtXNhYqOgUsWKws1f-2" value="" style="rounded=0;whiteSpace=wrap;html=1;fontSize=16;fillColor=#f9f7ed;strokeColor=#36393d;" vertex="1" parent="1">
          <mxGeometry x="60" width="280" height="335" as="geometry" />
        </mxCell>
        <mxCell id="FLKgtXNhYqOgUsWKws1f-8" value="&lt;span style=&quot;color: rgb(51 , 51 , 51) ; font-family: &amp;#34;helvetica neue&amp;#34; , &amp;#34;helvetica&amp;#34; , &amp;#34;arial&amp;#34; , sans-serif ; font-size: 16px ; text-align: left&quot;&gt;creator_trx_&lt;/span&gt;&lt;span style=&quot;color: rgb(51 , 51 , 51) ; font-family: &amp;#34;helvetica neue&amp;#34; , &amp;#34;helvetica&amp;#34; , &amp;#34;arial&amp;#34; , sans-serif ; font-size: 16px ; text-align: left&quot;&gt;id = &lt;/span&gt;&lt;span style=&quot;font-family: &amp;#34;helvetica neue&amp;#34; , &amp;#34;helvetica&amp;#34; , &amp;#34;arial&amp;#34; , sans-serif ; font-size: 16px ; text-align: left&quot;&gt;&lt;font color=&quot;#ff3333&quot;&gt;52&lt;/font&gt;&lt;/span&gt;&lt;span style=&quot;color: rgb(51 , 51 , 51) ; font-family: &amp;#34;helvetica neue&amp;#34; , &amp;#34;helvetica&amp;#34; , &amp;#34;arial&amp;#34; , sans-serif ; font-size: 16px ; text-align: left&quot;&gt;&amp;nbsp;&lt;/span&gt;" style="rounded=1;whiteSpace=wrap;html=1;fontSize=16;fillColor=#dae8fc;strokeColor=#6c8ebf;labelBackgroundColor=none;" vertex="1" parent="1">
          <mxGeometry x="120" y="72.5" width="160" height="60" as="geometry" />
        </mxCell>
        <mxCell id="FLKgtXNhYqOgUsWKws1f-9" value="&lt;span style=&quot;color: rgb(51 , 51 , 51) ; font-family: &amp;quot;helvetica neue&amp;quot; , &amp;quot;helvetica&amp;quot; , &amp;quot;arial&amp;quot; , sans-serif ; font-size: 16px ; text-align: left&quot;&gt;m_&lt;/span&gt;&lt;span style=&quot;color: rgb(51 , 51 , 51) ; font-family: &amp;quot;helvetica neue&amp;quot; , &amp;quot;helvetica&amp;quot; , &amp;quot;arial&amp;quot; , sans-serif ; font-size: 16px ; text-align: left&quot;&gt;id&lt;/span&gt;&lt;span style=&quot;color: rgb(51 , 51 , 51) ; font-family: &amp;quot;helvetica neue&amp;quot; , &amp;quot;helvetica&amp;quot; , &amp;quot;arial&amp;quot; , sans-serif ; font-size: 16px ; text-align: left&quot;&gt;s = [51, 52]&lt;br style=&quot;font-size: 16px;&quot;&gt;&lt;/span&gt;" style="rounded=1;whiteSpace=wrap;html=1;fontSize=16;fillColor=#ffe6cc;strokeColor=#d79b00;labelBackgroundColor=none;" vertex="1" parent="1">
          <mxGeometry x="120" y="132.5" width="160" height="60" as="geometry" />
        </mxCell>
        <mxCell id="FLKgtXNhYqOgUsWKws1f-10" value="&lt;span style=&quot;color: rgb(51 , 51 , 51) ; font-family: &amp;quot;helvetica neue&amp;quot; , &amp;quot;helvetica&amp;quot; , &amp;quot;arial&amp;quot; , sans-serif ; font-size: 16px ; text-align: left&quot;&gt;min_trx_&lt;/span&gt;&lt;span style=&quot;color: rgb(51 , 51 , 51) ; font-family: &amp;quot;helvetica neue&amp;quot; , &amp;quot;helvetica&amp;quot; , &amp;quot;arial&amp;quot; , sans-serif ; font-size: 16px ; text-align: left&quot;&gt;id = 51&lt;/span&gt;" style="rounded=1;whiteSpace=wrap;html=1;fontSize=16;fillColor=#d5e8d4;strokeColor=#82b366;labelBackgroundColor=none;" vertex="1" parent="1">
          <mxGeometry x="120" y="192.5" width="160" height="60" as="geometry" />
        </mxCell>
        <mxCell id="FLKgtXNhYqOgUsWKws1f-11" value="&lt;span style=&quot;color: rgb(51 , 51 , 51) ; font-family: &amp;quot;helvetica neue&amp;quot; , &amp;quot;helvetica&amp;quot; , &amp;quot;arial&amp;quot; , sans-serif ; font-size: 16px ; text-align: left&quot;&gt;max_trx_&lt;/span&gt;&lt;span style=&quot;color: rgb(51 , 51 , 51) ; font-family: &amp;quot;helvetica neue&amp;quot; , &amp;quot;helvetica&amp;quot; , &amp;quot;arial&amp;quot; , sans-serif ; font-size: 16px ; text-align: left&quot;&gt;id = 53&lt;/span&gt;" style="rounded=1;whiteSpace=wrap;html=1;fontSize=16;fillColor=#e1d5e7;strokeColor=#9673a6;labelBackgroundColor=none;" vertex="1" parent="1">
          <mxGeometry x="120" y="252.5" width="160" height="60" as="geometry" />
        </mxCell>
        <mxCell id="FLKgtXNhYqOgUsWKws1f-13" value="启动事务 B 后，第一次读取数据&lt;br&gt;创建的 Read View" style="text;html=1;align=center;verticalAlign=middle;resizable=0;points=[];autosize=1;strokeColor=none;fontSize=16;" vertex="1" parent="1">
          <mxGeometry x="80" y="17.5" width="240" height="40" as="geometry" />
        </mxCell>
        <mxCell id="FLKgtXNhYqOgUsWKws1f-14" value="2" style="rounded=0;whiteSpace=wrap;html=1;fontSize=16;fillColor=#ffe6cc;strokeColor=#d79b00;" vertex="1" parent="1">
          <mxGeometry x="230" y="455" width="80" height="40" as="geometry" />
        </mxCell>
        <mxCell id="FLKgtXNhYqOgUsWKws1f-15" value="小林" style="rounded=0;whiteSpace=wrap;html=1;fontSize=16;fillColor=#ffe6cc;strokeColor=#d79b00;" vertex="1" parent="1">
          <mxGeometry x="310" y="455" width="80" height="40" as="geometry" />
        </mxCell>
        <mxCell id="FLKgtXNhYqOgUsWKws1f-16" value="2000000" style="rounded=0;whiteSpace=wrap;html=1;fontSize=16;fillColor=#ffe6cc;strokeColor=#d79b00;" vertex="1" parent="1">
          <mxGeometry x="390" y="455" width="80" height="40" as="geometry" />
        </mxCell>
        <mxCell id="FLKgtXNhYqOgUsWKws1f-17" value="&lt;font color=&quot;#ff3333&quot;&gt;51&lt;/font&gt;" style="rounded=0;whiteSpace=wrap;html=1;fontSize=16;fillColor=#f5f5f5;strokeColor=#666666;fontColor=#333333;" vertex="1" parent="1">
          <mxGeometry x="470" y="455" width="80" height="40" as="geometry" />
        </mxCell>
        <mxCell id="FLKgtXNhYqOgUsWKws1f-18" value="" style="rounded=0;whiteSpace=wrap;html=1;fontSize=16;fillColor=#f5f5f5;strokeColor=#666666;fontColor=#333333;" vertex="1" parent="1">
          <mxGeometry x="550" y="455" width="80" height="40" as="geometry" />
        </mxCell>
        <mxCell id="FLKgtXNhYqOgUsWKws1f-19" value="id" style="text;html=1;align=center;verticalAlign=middle;resizable=0;points=[];autosize=1;strokeColor=none;fontSize=16;" vertex="1" parent="1">
          <mxGeometry x="255" y="435" width="30" height="20" as="geometry" />
        </mxCell>
        <mxCell id="FLKgtXNhYqOgUsWKws1f-20" value="name" style="text;html=1;align=center;verticalAlign=middle;resizable=0;points=[];autosize=1;strokeColor=none;fontSize=16;" vertex="1" parent="1">
          <mxGeometry x="320" y="435" width="60" height="20" as="geometry" />
        </mxCell>
        <mxCell id="FLKgtXNhYqOgUsWKws1f-21" value="balance" style="text;html=1;align=center;verticalAlign=middle;resizable=0;points=[];autosize=1;strokeColor=none;fontSize=16;" vertex="1" parent="1">
          <mxGeometry x="395" y="435" width="70" height="20" as="geometry" />
        </mxCell>
        <mxCell id="FLKgtXNhYqOgUsWKws1f-22" value="trx_id" style="text;html=1;align=center;verticalAlign=middle;resizable=0;points=[];autosize=1;strokeColor=none;fontSize=16;" vertex="1" parent="1">
          <mxGeometry x="485" y="435" width="50" height="20" as="geometry" />
        </mxCell>
        <mxCell id="FLKgtXNhYqOgUsWKws1f-23" value="roll_pointer" style="text;html=1;align=center;verticalAlign=middle;resizable=0;points=[];autosize=1;strokeColor=none;fontSize=16;" vertex="1" parent="1">
          <mxGeometry x="550" y="435" width="90" height="20" as="geometry" />
        </mxCell>
        <mxCell id="FLKgtXNhYqOgUsWKws1f-24" style="edgeStyle=orthogonalEdgeStyle;rounded=0;orthogonalLoop=1;jettySize=auto;html=1;entryX=0;entryY=0.5;entryDx=0;entryDy=0;" edge="1" parent="1" source="FLKgtXNhYqOgUsWKws1f-25" target="FLKgtXNhYqOgUsWKws1f-27">
          <mxGeometry relative="1" as="geometry">
            <Array as="points">
              <mxPoint x="590" y="512.5" />
              <mxPoint x="210" y="512.5" />
              <mxPoint x="210" y="562.5" />
            </Array>
          </mxGeometry>
        </mxCell>
        <mxCell id="FLKgtXNhYqOgUsWKws1f-25" value="" style="ellipse;whiteSpace=wrap;html=1;aspect=fixed;fontSize=16;" vertex="1" parent="1">
          <mxGeometry x="585" y="470" width="10" height="10" as="geometry" />
        </mxCell>
        <mxCell id="FLKgtXNhYqOgUsWKws1f-26" value="记录的字段" style="text;html=1;align=center;verticalAlign=middle;resizable=0;points=[];autosize=1;strokeColor=none;fontSize=16;" vertex="1" parent="1">
          <mxGeometry x="380" y="390" width="100" height="20" as="geometry" />
        </mxCell>
        <mxCell id="FLKgtXNhYqOgUsWKws1f-27" value="1" style="rounded=0;whiteSpace=wrap;html=1;fontSize=16;fillColor=#dae8fc;strokeColor=#6c8ebf;" vertex="1" parent="1">
          <mxGeometry x="230" y="542.5" width="80" height="40" as="geometry" />
        </mxCell>
        <mxCell id="FLKgtXNhYqOgUsWKws1f-28" value="小林" style="rounded=0;whiteSpace=wrap;html=1;fontSize=16;fillColor=#dae8fc;strokeColor=#6c8ebf;" vertex="1" parent="1">
          <mxGeometry x="310" y="542.5" width="80" height="40" as="geometry" />
        </mxCell>
        <mxCell id="FLKgtXNhYqOgUsWKws1f-29" value="1000000" style="rounded=0;whiteSpace=wrap;html=1;fontSize=16;fillColor=#dae8fc;strokeColor=#6c8ebf;" vertex="1" parent="1">
          <mxGeometry x="390" y="542.5" width="80" height="40" as="geometry" />
        </mxCell>
        <mxCell id="FLKgtXNhYqOgUsWKws1f-30" value="&lt;font color=&quot;#ff3333&quot;&gt;50&lt;/font&gt;" style="rounded=0;whiteSpace=wrap;html=1;fontSize=16;fillColor=#f5f5f5;strokeColor=#666666;fontColor=#333333;" vertex="1" parent="1">
          <mxGeometry x="470" y="542.5" width="80" height="40" as="geometry" />
        </mxCell>
        <mxCell id="FLKgtXNhYqOgUsWKws1f-31" value="" style="rounded=0;whiteSpace=wrap;html=1;fontSize=16;fillColor=#f5f5f5;strokeColor=#666666;fontColor=#333333;" vertex="1" parent="1">
          <mxGeometry x="550" y="542.5" width="80" height="40" as="geometry" />
        </mxCell>
        <mxCell id="FLKgtXNhYqOgUsWKws1f-32" value="id" style="text;html=1;align=center;verticalAlign=middle;resizable=0;points=[];autosize=1;strokeColor=none;fontSize=16;" vertex="1" parent="1">
          <mxGeometry x="255" y="522.5" width="30" height="20" as="geometry" />
        </mxCell>
        <mxCell id="FLKgtXNhYqOgUsWKws1f-33" value="name" style="text;html=1;align=center;verticalAlign=middle;resizable=0;points=[];autosize=1;strokeColor=none;fontSize=16;" vertex="1" parent="1">
          <mxGeometry x="320" y="522.5" width="60" height="20" as="geometry" />
        </mxCell>
        <mxCell id="FLKgtXNhYqOgUsWKws1f-34" value="balance" style="text;html=1;align=center;verticalAlign=middle;resizable=0;points=[];autosize=1;strokeColor=none;fontSize=16;" vertex="1" parent="1">
          <mxGeometry x="395" y="522.5" width="70" height="20" as="geometry" />
        </mxCell>
        <mxCell id="FLKgtXNhYqOgUsWKws1f-35" value="trx_id" style="text;html=1;align=center;verticalAlign=middle;resizable=0;points=[];autosize=1;strokeColor=none;fontSize=16;" vertex="1" parent="1">
          <mxGeometry x="485" y="522.5" width="50" height="20" as="geometry" />
        </mxCell>
        <mxCell id="FLKgtXNhYqOgUsWKws1f-36" value="roll_pointer" style="text;html=1;align=center;verticalAlign=middle;resizable=0;points=[];autosize=1;strokeColor=none;fontSize=16;" vertex="1" parent="1">
          <mxGeometry x="550" y="522.5" width="90" height="20" as="geometry" />
        </mxCell>
        <mxCell id="FLKgtXNhYqOgUsWKws1f-37" value="" style="ellipse;whiteSpace=wrap;html=1;aspect=fixed;fontSize=16;" vertex="1" parent="1">
          <mxGeometry x="585" y="557.5" width="10" height="10" as="geometry" />
        </mxCell>
        <mxCell id="FLKgtXNhYqOgUsWKws1f-38" value="" style="rounded=0;whiteSpace=wrap;html=1;fontSize=16;fillColor=#f9f7ed;strokeColor=#36393d;" vertex="1" parent="1">
          <mxGeometry x="460" width="280" height="335" as="geometry" />
        </mxCell>
        <mxCell id="FLKgtXNhYqOgUsWKws1f-39" value="&lt;span style=&quot;color: rgb(51 , 51 , 51) ; font-family: &amp;#34;helvetica neue&amp;#34; , &amp;#34;helvetica&amp;#34; , &amp;#34;arial&amp;#34; , sans-serif ; font-size: 16px ; text-align: left&quot;&gt;creator_trx_&lt;/span&gt;&lt;span style=&quot;color: rgb(51 , 51 , 51) ; font-family: &amp;#34;helvetica neue&amp;#34; , &amp;#34;helvetica&amp;#34; , &amp;#34;arial&amp;#34; , sans-serif ; font-size: 16px ; text-align: left&quot;&gt;id = &lt;/span&gt;&lt;span style=&quot;font-family: &amp;#34;helvetica neue&amp;#34; , &amp;#34;helvetica&amp;#34; , &amp;#34;arial&amp;#34; , sans-serif ; font-size: 16px ; text-align: left&quot;&gt;&lt;font color=&quot;#ff3333&quot;&gt;52&lt;/font&gt;&lt;/span&gt;&lt;span style=&quot;color: rgb(51 , 51 , 51) ; font-family: &amp;#34;helvetica neue&amp;#34; , &amp;#34;helvetica&amp;#34; , &amp;#34;arial&amp;#34; , sans-serif ; font-size: 16px ; text-align: left&quot;&gt;&amp;nbsp;&lt;/span&gt;" style="rounded=1;whiteSpace=wrap;html=1;fontSize=16;fillColor=#dae8fc;strokeColor=#6c8ebf;labelBackgroundColor=none;" vertex="1" parent="1">
          <mxGeometry x="520" y="72.5" width="160" height="60" as="geometry" />
        </mxCell>
        <mxCell id="FLKgtXNhYqOgUsWKws1f-40" value="&lt;span style=&quot;color: rgb(51 , 51 , 51) ; font-family: &amp;quot;helvetica neue&amp;quot; , &amp;quot;helvetica&amp;quot; , &amp;quot;arial&amp;quot; , sans-serif ; font-size: 16px ; text-align: left&quot;&gt;m_&lt;/span&gt;&lt;span style=&quot;color: rgb(51 , 51 , 51) ; font-family: &amp;quot;helvetica neue&amp;quot; , &amp;quot;helvetica&amp;quot; , &amp;quot;arial&amp;quot; , sans-serif ; font-size: 16px ; text-align: left&quot;&gt;id&lt;/span&gt;&lt;span style=&quot;color: rgb(51 , 51 , 51) ; font-family: &amp;quot;helvetica neue&amp;quot; , &amp;quot;helvetica&amp;quot; , &amp;quot;arial&amp;quot; , sans-serif ; font-size: 16px ; text-align: left&quot;&gt;s = [51, 52]&lt;br style=&quot;font-size: 16px;&quot;&gt;&lt;/span&gt;" style="rounded=1;whiteSpace=wrap;html=1;fontSize=16;fillColor=#ffe6cc;strokeColor=#d79b00;labelBackgroundColor=none;" vertex="1" parent="1">
          <mxGeometry x="520" y="132.5" width="160" height="60" as="geometry" />
        </mxCell>
        <mxCell id="FLKgtXNhYqOgUsWKws1f-41" value="&lt;span style=&quot;color: rgb(51 , 51 , 51) ; font-family: &amp;quot;helvetica neue&amp;quot; , &amp;quot;helvetica&amp;quot; , &amp;quot;arial&amp;quot; , sans-serif ; font-size: 16px ; text-align: left&quot;&gt;min_trx_&lt;/span&gt;&lt;span style=&quot;color: rgb(51 , 51 , 51) ; font-family: &amp;quot;helvetica neue&amp;quot; , &amp;quot;helvetica&amp;quot; , &amp;quot;arial&amp;quot; , sans-serif ; font-size: 16px ; text-align: left&quot;&gt;id = 51&lt;/span&gt;" style="rounded=1;whiteSpace=wrap;html=1;fontSize=16;fillColor=#d5e8d4;strokeColor=#82b366;labelBackgroundColor=none;" vertex="1" parent="1">
          <mxGeometry x="520" y="192.5" width="160" height="60" as="geometry" />
        </mxCell>
        <mxCell id="FLKgtXNhYqOgUsWKws1f-42" value="&lt;span style=&quot;color: rgb(51 , 51 , 51) ; font-family: &amp;quot;helvetica neue&amp;quot; , &amp;quot;helvetica&amp;quot; , &amp;quot;arial&amp;quot; , sans-serif ; font-size: 16px ; text-align: left&quot;&gt;max_trx_&lt;/span&gt;&lt;span style=&quot;color: rgb(51 , 51 , 51) ; font-family: &amp;quot;helvetica neue&amp;quot; , &amp;quot;helvetica&amp;quot; , &amp;quot;arial&amp;quot; , sans-serif ; font-size: 16px ; text-align: left&quot;&gt;id = 53&lt;/span&gt;" style="rounded=1;whiteSpace=wrap;html=1;fontSize=16;fillColor=#e1d5e7;strokeColor=#9673a6;labelBackgroundColor=none;" vertex="1" parent="1">
          <mxGeometry x="520" y="252.5" width="160" height="60" as="geometry" />
        </mxCell>
        <mxCell id="FLKgtXNhYqOgUsWKws1f-43" value="启动事务 B 后，第二次读取数据&lt;br&gt;创建的 Read View" style="text;html=1;align=center;verticalAlign=middle;resizable=0;points=[];autosize=1;strokeColor=none;fontSize=16;" vertex="1" parent="1">
          <mxGeometry x="480" y="17.5" width="240" height="40" as="geometry" />
        </mxCell>
      </root>
    </mxGraphModel>
  </diagram>
</mxfile>
